<svg id="visual" viewBox="0 0 900 600" width="900" height="600" xmlns="http://www.w3.org/2000/svg" xmlns:xlink="http://www.w3.org/1999/xlink" version="1.1"><rect x="0" y="0" width="900" height="600" fill="#931C1C"></rect><path d="M0 437L129 417L257 384L386 417L514 351L643 394L771 379L900 357L900 601L771 601L643 601L514 601L386 601L257 601L129 601L0 601Z" fill="#871400"></path><path d="M0 444L129 446L257 413L386 398L514 457L643 436L771 477L900 471L900 601L771 601L643 601L514 601L386 601L257 601L129 601L0 601Z" fill="#74002d"></path><path d="M0 449L129 472L257 443L386 450L514 467L643 495L771 477L900 496L900 601L771 601L643 601L514 601L386 601L257 601L129 601L0 601Z" fill="#4c0e40"></path><path d="M0 488L129 484L257 482L386 482L514 516L643 504L771 526L900 517L900 601L771 601L643 601L514 601L386 601L257 601L129 601L0 601Z" fill="#1e173a"></path><path d="M0 570L129 561L257 565L386 560L514 537L643 559L771 533L900 530L900 601L771 601L643 601L514 601L386 601L257 601L129 601L0 601Z" fill="#001122"></path></svg>