<svg id="visual" viewBox="0 0 900 600" width="900" height="600" xmlns="http://www.w3.org/2000/svg" xmlns:xlink="http://www.w3.org/1999/xlink" version="1.1"><path d="M0 79L75 79L75 43L150 43L150 61L225 61L225 61L300 61L300 67L375 67L375 55L450 55L450 55L525 55L525 85L600 85L600 91L675 91L675 85L750 85L750 25L825 25L825 55L900 55L900 25L900 0L900 0L825 0L825 0L750 0L750 0L675 0L675 0L600 0L600 0L525 0L525 0L450 0L450 0L375 0L375 0L300 0L300 0L225 0L225 0L150 0L150 0L75 0L75 0L0 0Z" fill="#e93225"></path><path d="M0 163L75 163L75 133L150 133L150 103L225 103L225 181L300 181L300 163L375 163L375 157L450 157L450 97L525 97L525 199L600 199L600 223L675 223L675 199L750 199L750 103L825 103L825 187L900 187L900 127L900 23L900 53L825 53L825 23L750 23L750 83L675 83L675 89L600 89L600 83L525 83L525 53L450 53L450 53L375 53L375 65L300 65L300 59L225 59L225 59L150 59L150 41L75 41L75 77L0 77Z" fill="#d82b1f"></path><path d="M0 205L75 205L75 187L150 187L150 217L225 217L225 301L300 301L300 241L375 241L375 259L450 259L450 211L525 211L525 223L600 223L600 289L675 289L675 313L750 313L750 229L825 229L825 253L900 253L900 211L900 125L900 185L825 185L825 101L750 101L750 197L675 197L675 221L600 221L600 197L525 197L525 95L450 95L450 155L375 155L375 161L300 161L300 179L225 179L225 101L150 101L150 131L75 131L75 161L0 161Z" fill="#c8231a"></path><path d="M0 463L75 463L75 259L150 259L150 379L225 379L225 421L300 421L300 493L375 493L375 319L450 319L450 295L525 295L525 421L600 421L600 403L675 403L675 385L750 385L750 493L825 493L825 367L900 367L900 475L900 209L900 251L825 251L825 227L750 227L750 311L675 311L675 287L600 287L600 221L525 221L525 209L450 209L450 257L375 257L375 239L300 239L300 299L225 299L225 215L150 215L150 185L75 185L75 203L0 203Z" fill="#b81b14"></path><path d="M0 523L75 523L75 343L150 343L150 433L225 433L225 469L300 469L300 541L375 541L375 403L450 403L450 337L525 337L525 511L600 511L600 451L675 451L675 451L750 451L750 535L825 535L825 415L900 415L900 499L900 473L900 365L825 365L825 491L750 491L750 383L675 383L675 401L600 401L600 419L525 419L525 293L450 293L450 317L375 317L375 491L300 491L300 419L225 419L225 377L150 377L150 257L75 257L75 461L0 461Z" fill="#a8130f"></path><path d="M0 601L75 601L75 601L150 601L150 601L225 601L225 601L300 601L300 601L375 601L375 601L450 601L450 601L525 601L525 601L600 601L600 601L675 601L675 601L750 601L750 601L825 601L825 601L900 601L900 601L900 497L900 413L825 413L825 533L750 533L750 449L675 449L675 449L600 449L600 509L525 509L525 335L450 335L450 401L375 401L375 539L300 539L300 467L225 467L225 431L150 431L150 341L75 341L75 521L0 521Z" fill="#980a0a"></path></svg>